<?xml version="1.0" encoding="utf-8"?>
<!-- Generator: Adobe Illustrator 16.0.0, SVG Export Plug-In . SVG Version: 6.00 Build 0)  -->
<!DOCTYPE svg PUBLIC "-//W3C//DTD SVG 1.1//EN" "http://www.w3.org/Graphics/SVG/1.1/DTD/svg11.dtd">
<svg version="1.1" id="Capa_1" xmlns="http://www.w3.org/2000/svg" xmlns:xlink="http://www.w3.org/1999/xlink" x="0px" y="0px"
	 width="160.036px" height="75.424px" viewBox="0 0 160.036 75.424" enable-background="new 0 0 160.036 75.424"
	 xml:space="preserve">
<g>
	<path fill="#F5D52F" d="M37.712,18.355c0-6.55,1.67-12.708,4.606-18.075C40.809,0.096,39.272,0,37.712,0
		C16.885,0,0,16.884,0,37.712C0,58.54,16.885,75.424,37.712,75.424c14.279,0,26.704-7.936,33.106-19.639
		C52.164,53.514,37.712,37.623,37.712,18.355z"/>
	<g>
		<path d="M75.486,31.771v-8.907l-2.834,6.264h-2.477l-2.834-6.264v8.907h-4.645V14.86h5.073l3.644,7.955l3.668-7.955h5.049v16.91
			H75.486z"/>
		<path d="M90.657,31.89c-1.287,0-2.453-0.242-3.502-0.727c-1.047-0.483-1.949-1.135-2.703-1.953
			c-0.754-0.817-1.334-1.738-1.739-2.763c-0.405-1.023-0.607-2.084-0.607-3.18c0-1.127,0.214-2.198,0.643-3.215
			c0.429-1.016,1.028-1.925,1.798-2.728c0.77-0.801,1.683-1.433,2.738-1.893c1.057-0.461,2.211-0.691,3.466-0.691
			c1.286,0,2.453,0.242,3.501,0.727c1.049,0.484,1.945,1.14,2.691,1.965c0.746,0.826,1.322,1.751,1.727,2.775
			c0.405,1.023,0.607,2.076,0.607,3.155c0,1.111-0.211,2.176-0.631,3.191c-0.421,1.017-1.016,1.926-1.786,2.728
			s-1.679,1.437-2.728,1.905C93.087,31.655,91.927,31.89,90.657,31.89z M86.822,23.315c0,0.572,0.079,1.124,0.238,1.655
			c0.158,0.532,0.396,1.009,0.714,1.43c0.318,0.421,0.719,0.754,1.203,1s1.061,0.369,1.727,0.369c0.668,0,1.246-0.127,1.739-0.381
			c0.491-0.254,0.894-0.6,1.202-1.036c0.311-0.437,0.54-0.921,0.691-1.453c0.15-0.531,0.227-1.075,0.227-1.632
			c0-0.571-0.08-1.119-0.238-1.643c-0.159-0.524-0.397-0.996-0.715-1.417c-0.318-0.421-0.723-0.751-1.215-0.989
			c-0.492-0.237-1.064-0.356-1.715-0.356c-0.667,0-1.242,0.127-1.727,0.381s-0.886,0.592-1.203,1.012
			c-0.318,0.421-0.552,0.897-0.703,1.43C86.897,22.217,86.822,22.76,86.822,23.315z"/>
		<path d="M108.877,31.89c-1.286,0-2.453-0.242-3.501-0.727c-1.048-0.483-1.949-1.135-2.703-1.953
			c-0.754-0.817-1.334-1.738-1.738-2.763c-0.405-1.023-0.607-2.084-0.607-3.18c0-1.127,0.214-2.198,0.643-3.215
			c0.429-1.016,1.027-1.925,1.799-2.728c0.77-0.801,1.682-1.433,2.738-1.893c1.056-0.461,2.211-0.691,3.465-0.691
			c1.287,0,2.453,0.242,3.502,0.727c1.048,0.484,1.945,1.14,2.691,1.965c0.746,0.826,1.322,1.751,1.727,2.775
			c0.404,1.023,0.607,2.076,0.607,3.155c0,1.111-0.211,2.176-0.631,3.191c-0.422,1.017-1.017,1.926-1.787,2.728
			c-0.77,0.802-1.679,1.437-2.727,1.905C111.307,31.655,110.147,31.89,108.877,31.89z M105.042,23.315
			c0,0.572,0.08,1.124,0.238,1.655c0.158,0.532,0.396,1.009,0.715,1.43c0.317,0.421,0.719,0.754,1.203,1s1.06,0.369,1.727,0.369
			s1.246-0.127,1.738-0.381s0.894-0.6,1.203-1.036s0.539-0.921,0.69-1.453c0.151-0.531,0.227-1.075,0.227-1.632
			c0-0.571-0.079-1.119-0.238-1.643c-0.159-0.524-0.397-0.996-0.714-1.417c-0.318-0.421-0.723-0.751-1.215-0.989
			c-0.492-0.237-1.064-0.356-1.715-0.356c-0.668,0-1.243,0.127-1.727,0.381c-0.485,0.254-0.887,0.592-1.203,1.012
			c-0.318,0.421-0.553,0.897-0.703,1.43S105.042,22.76,105.042,23.315z"/>
		<path d="M124.12,23.459v8.312h-4.645V14.86h3.621l6.787,8.599V14.86h4.645v16.91h-3.691L124.12,23.459z"/>
		<path d="M137.434,31.771V14.86h4.645v16.91H137.434z"/>
		<path d="M149.628,23.459v8.312h-4.645V14.86h3.621l6.787,8.599V14.86h4.645v16.91h-3.691L149.628,23.459z"/>
	</g>
</g>
</svg>
